<?xml version="1.0" encoding="UTF-8"?><svg id="Ebene_2" xmlns="http://www.w3.org/2000/svg" viewBox="0 0 102.7 102.7"><defs><style>.cls-1{fill:#fff;}.cls-2{fill:gray;}</style></defs><g id="Ebene_1-2"><g><g><circle class="cls-2" cx="51.35" cy="51.35" r="49.39"/><path class="cls-1" d="M51.35,3.92c26.19,0,47.43,21.23,47.43,47.43s-21.23,47.43-47.43,47.43S3.92,77.54,3.92,51.35,25.16,3.92,51.35,3.92m0-3.92c-6.93,0-13.66,1.36-19.99,4.04-6.12,2.59-11.61,6.29-16.32,11-4.71,4.71-8.42,10.21-11,16.32C1.36,37.69,0,44.42,0,51.35s1.36,13.66,4.04,19.99c2.59,6.12,6.29,11.61,11,16.32,4.71,4.71,10.21,8.42,16.32,11,6.33,2.68,13.06,4.04,19.99,4.04s13.66-1.36,19.99-4.04c6.12-2.59,11.61-6.29,16.32-11,4.71-4.71,8.42-10.21,11-16.32,2.68-6.33,4.04-13.06,4.04-19.99s-1.36-13.66-4.04-19.99c-2.59-6.12-6.29-11.61-11-16.32-4.71-4.71-10.21-8.42-16.32-11C65,1.36,58.28,0,51.35,0h0Z"/></g><path class="cls-1" d="M46.5,84.51c-1.66,0-3.31-.31-4.73-.92-1.49-.63-2.98-1.7-3.99-2.86-1.24-1.43-1.68-2.89-1.23-4.13,.52-1.43,2.2-2.59,4-2.77h0c2.25-.23,3.87,1.09,5.3,2.26,1.15,.94,2.15,1.75,3.16,1.56,.8-.15,1.33-.85,1.79-1.46,.49-.65,1.11-1.46,2.12-1.21,.38,.09,.91,.38,1.29,1.22,.61,1.35,.63,3.61-.52,5.31-1.02,1.5-2.92,2.52-5.35,2.87-.61,.09-1.22,.13-1.84,.13Zm-5.76-9.13c-1.11,.11-2.23,.86-2.53,1.71-.58,1.6,1.84,4.06,4.32,5.11,3.11,1.32,8.01,.96,9.68-1.49,.99-1.46,.72-3.36,.35-4.04-.1,.12-.22,.27-.31,.4-.59,.77-1.39,1.83-2.88,2.11-1.89,.36-3.31-.81-4.69-1.93-1.27-1.03-2.46-2.01-3.93-1.86h0Z"/><path class="cls-1" d="M36.33,63.64c1.53-.65,3.17-1.01,4.71-1.01,1.62,0,3.41,.4,4.79,1.07,1.7,.83,2.68,2,2.75,3.32,.08,1.51-1.01,3.24-2.59,4.11h0c-1.98,1.09-3.99,.51-5.76,0-1.43-.41-2.66-.77-3.52-.2-.67,.45-.89,1.3-1.08,2.05-.2,.79-.45,1.77-1.48,1.95-.38,.07-.99,.01-1.67-.62-1.09-1.01-1.99-3.08-1.6-5.09,.35-1.78,1.7-3.46,3.8-4.74,.52-.32,1.07-.6,1.64-.84Zm8.88,6.15c.98-.54,1.71-1.66,1.66-2.56-.09-1.7-3.28-3.01-5.97-3.01-3.38,0-7.75,2.26-8.32,5.16-.34,1.73,.65,3.37,1.26,3.85,.05-.15,.09-.34,.13-.49,.24-.94,.56-2.23,1.82-3.07,1.6-1.07,3.36-.55,5.08-.06,1.57,.45,3.05,.88,4.34,.18h0Z"/><path class="cls-1" d="M35.29,51.35s-.08,0-.12,0c-1.58-.05-3.2-1.09-4.44-2.87-1.71-2.46-2.21-5.52-1.32-8.19h0c.95-2.86,3.46-5.02,6.7-5.79,1.99-.47,4.65-.44,6.16,1.07,2.47,2.47,.53,7.58-.13,9.09-.68,1.58-3.18,6.68-6.85,6.68Zm-2.16-9.82h0c-.47,1.41-.21,3.1,.68,4.51,.64,1,1.31,1.37,1.48,1.39,.29-.03,1.54-.9,2.83-3.44,1.39-2.74,1.61-5.08,1.35-5.65-.32-.17-1.49-.36-2.97,.12-.98,.32-2.73,1.14-3.38,3.07Z"/><path class="cls-1" d="M69.12,68.75c-2.82,0-5.55-.58-7.8-1.74-5.02-2.58-9.38-8.77-7.72-13.17,.91-2.42,3.11-3.14,5.06-3.77,1.83-.6,3.72-1.22,5.53-3.11,1.85-1.93,2.35-3.89,2.79-5.62,.45-1.76,.95-3.75,3.08-4.48,3.09-1.06,7.29,1.53,10.2,4.32,5.29,5.07,7.49,11.33,5.88,16.74-1.19,4-4.32,7.26-8.84,9.18-2.59,1.11-5.43,1.66-8.17,1.66Zm2.23-28.2c-.18,.23-.41,1.1-.57,1.75-.47,1.87-1.19,4.69-3.76,7.37-2.49,2.6-5.18,3.48-7.15,4.12-1.71,.56-2.38,.83-2.6,1.43h0c-.73,1.93,1.97,6.31,5.84,8.3,3.46,1.78,8.42,1.77,12.64-.03,3.42-1.46,5.77-3.84,6.62-6.69,1.39-4.69-1.59-9.68-4.83-12.79-2.96-2.84-5.51-3.65-6.19-3.45Z"/><circle class="cls-1" cx="72.92" cy="27.4" r="2.28"/><circle class="cls-1" cx="50.87" cy="45.77" r="2.28"/><circle class="cls-1" cx="56.9" cy="32.05" r="2.28"/><circle class="cls-1" cx="67.66" cy="78.14" r="2.28"/><circle class="cls-1" cx="87.41" cy="70.69" r="2.28"/><circle class="cls-1" cx="60.48" cy="87.73" r="2.28"/><circle class="cls-1" cx="14.42" cy="53.21" r="2.28"/><circle class="cls-1" cx="18.98" cy="34.33" r="2.28"/><circle class="cls-1" cx="60.19" cy="16.71" r="2.28"/><circle class="cls-1" cx="21.58" cy="62.63" r="2.28"/><circle class="cls-1" cx="37.24" cy="29.68" r="2.28"/><circle class="cls-1" cx="44.26" cy="14.97" r="2.28"/><circle class="cls-1" cx="25.32" cy="82.23" r="2.28"/></g></g></svg>