<?xml version="1.0" encoding="UTF-8"?><svg id="Ebene_2" xmlns="http://www.w3.org/2000/svg" viewBox="0 0 118.63 108.08"><defs><style>.cls-1{fill:#fff;}.cls-2{fill:gray;stroke:#fff;stroke-miterlimit:10;stroke-width:5px;}</style></defs><g id="Ebene_1-2"><g><path class="cls-2" d="M55.26,102c-15.35,8-40.58,1.77-45.3-10.67-4.08-10.74,8.84-21.56,2.38-32.17-2.2-3.62-4.01-2.86-6.47-6.54C-.81,42.58,2.74,22.06,13.88,15.42c10.85-6.48,23.51,3.44,33.53-5.45,2.76-2.45,3.45-4.66,7.15-6.3,5.69-2.51,11.31-.49,17.87,1.53,23.62,7.29,24.53,3.89,28.26,7.83,7.88,8.35-1.31,18.22,3.97,39.58,4.5,18.2,14.03,22.56,10.84,28.67-5.21,10.01-31.22-.86-53.45,15.66-3.38,2.51-3.72,3.46-6.78,5.06Z"/><path class="cls-1" d="M50.41,85.78c-1.66,0-3.31-.31-4.73-.92-1.49-.63-2.98-1.7-3.99-2.86-1.24-1.43-1.68-2.89-1.23-4.13,.52-1.43,2.2-2.59,4-2.77h0c2.25-.23,3.87,1.09,5.3,2.26,1.15,.94,2.15,1.75,3.16,1.56,.8-.15,1.33-.85,1.79-1.46,.49-.65,1.11-1.46,2.12-1.21,.38,.09,.91,.38,1.29,1.22,.61,1.35,.63,3.61-.52,5.31-1.02,1.5-2.92,2.52-5.35,2.87-.61,.09-1.22,.13-1.84,.13Zm-5.76-9.13c-1.11,.11-2.23,.86-2.53,1.71-.58,1.6,1.84,4.06,4.32,5.11,3.11,1.32,8.01,.96,9.68-1.49,.99-1.46,.72-3.36,.35-4.04-.1,.12-.22,.27-.31,.4-.59,.77-1.39,1.83-2.88,2.11-1.89,.36-3.31-.81-4.69-1.93-1.27-1.03-2.46-2.01-3.93-1.86h0Z"/><path class="cls-1" d="M22.12,30.72c1.21-1.13,2.63-2.04,4.08-2.57,1.52-.56,3.34-.8,4.87-.64,1.88,.19,3.2,.96,3.72,2.17,.6,1.39,.17,3.39-1.02,4.75h0c-1.48,1.7-3.57,1.85-5.41,1.98-1.48,.1-2.76,.19-3.37,1.02-.48,.65-.39,1.53-.31,2.3,.08,.81,.19,1.82-.72,2.34-.34,.19-.92,.35-1.78,0-1.37-.57-2.93-2.21-3.25-4.23-.28-1.79,.41-3.83,1.93-5.75,.38-.48,.8-.93,1.25-1.35Zm10.45,2.72c.74-.84,1.03-2.15,.68-2.98-.67-1.56-4.12-1.7-6.64-.77-3.17,1.16-6.5,4.78-6.04,7.71,.28,1.74,1.78,2.94,2.51,3.18,0-.16-.03-.35-.05-.51-.1-.97-.24-2.29,.65-3.51,1.13-1.55,2.97-1.68,4.75-1.8,1.63-.11,3.17-.22,4.14-1.33h0Z"/><path class="cls-1" d="M41.09,66.43s-.08,0-.12,0c-1.58-.05-3.2-1.09-4.44-2.87-1.71-2.46-2.21-5.52-1.32-8.19h0c.95-2.86,3.46-5.02,6.7-5.79,1.99-.47,4.65-.44,6.16,1.07,2.47,2.47,.53,7.58-.13,9.09-.68,1.58-3.18,6.68-6.85,6.68Zm-2.16-9.82h0c-.47,1.41-.21,3.1,.68,4.51,.64,1,1.31,1.37,1.48,1.39,.29-.03,1.54-.9,2.83-3.44,1.39-2.74,1.61-5.08,1.35-5.65-.32-.17-1.49-.36-2.97,.12-.98,.32-2.73,1.14-3.38,3.07Z"/><path class="cls-1" d="M73.03,70.02c-2.82,0-5.55-.58-7.8-1.74-5.02-2.58-9.38-8.77-7.72-13.17,.91-2.42,3.11-3.14,5.06-3.77,1.83-.6,3.72-1.22,5.53-3.11,1.85-1.93,2.35-3.89,2.79-5.62,.45-1.76,.95-3.75,3.08-4.48,3.09-1.06,7.29,1.53,10.2,4.32,5.29,5.07,7.49,11.33,5.88,16.74-1.19,4-4.32,7.26-8.84,9.18-2.59,1.11-5.43,1.66-8.17,1.66Zm2.23-28.2c-.18,.23-.41,1.1-.57,1.75-.47,1.87-1.19,4.69-3.76,7.37-2.49,2.6-5.18,3.48-7.15,4.12-1.71,.56-2.38,.83-2.6,1.43h0c-.73,1.93,1.97,6.31,5.84,8.3,3.46,1.78,8.42,1.77,12.64-.03,3.42-1.46,5.77-3.84,6.62-6.69,1.39-4.69-1.59-9.68-4.83-12.79-2.96-2.84-5.51-3.65-6.19-3.45Z"/><circle class="cls-1" cx="76.84" cy="28.67" r="2.28"/><circle class="cls-1" cx="88.3" cy="34.03" r="2.28"/><circle class="cls-1" cx="54.78" cy="47.04" r="2.28"/><circle class="cls-1" cx="60.82" cy="33.32" r="2.28"/><circle class="cls-1" cx="71.57" cy="79.41" r="2.28"/><circle class="cls-1" cx="91.32" cy="71.96" r="2.28"/><circle class="cls-1" cx="64.39" cy="89" r="2.28"/><circle class="cls-1" cx="18.33" cy="54.48" r="2.28"/><circle class="cls-1" cx="33.54" cy="41.79" r="2.28"/><circle class="cls-1" cx="11.91" cy="37.14" r="2.28"/><circle class="cls-1" cx="19.57" cy="23.17" r="2.28"/><circle class="cls-1" cx="64.1" cy="17.98" r="2.28"/><circle class="cls-1" cx="25.5" cy="63.9" r="2.28"/><circle class="cls-1" cx="41.15" cy="30.95" r="2.28"/><circle class="cls-1" cx="46.81" cy="19.81" r="2.28"/><circle class="cls-1" cx="83.74" cy="18.61" r="2.28"/><circle class="cls-1" cx="34.17" cy="92.86" r="2.28"/><circle class="cls-1" cx="32.77" cy="79.41" r="2.28"/><circle class="cls-1" cx="23.22" cy="78.91" r="2.28"/></g></g></svg>