<?xml version="1.0" encoding="UTF-8"?><svg id="Ebene_2" xmlns="http://www.w3.org/2000/svg" viewBox="0 0 423.93 128.52"><defs><style>.cls-1{fill:#fff;}.cls-1,.cls-2,.cls-3,.cls-4,.cls-5{stroke:#fff;stroke-miterlimit:10;stroke-width:2px;}.cls-2{fill:none;}.cls-3{fill:gray;}.cls-4{fill:#fc4f4f;}.cls-5{fill:red;}</style></defs><g id="Ebene_1-2"><g><g><path class="cls-5" d="M4.19,62.83c.07-.01,.14-.03,.22-.04,.03,0,.07,0,.11-.02,.01,0,.03,0,.05-.02h.01"/><path class="cls-5" d="M5.48,62.57c-.41,.04-.76,.09-1.07,.15-.08,.02-.15,.03-.22,.05"/><path class="cls-5" d="M4.6,62.76s-.05,0-.08,0"/></g><g><path class="cls-5" d="M148.15,86.07l-3.32,11.97s-24.96,25.63-40.78,25.63S33.47,69.58,5.79,63.01c7.26,.83,29.18,.15,65.77,25.9,23.89,16.81,34.6,22.48,45.75,18.55,12.09-4.25,26.76-21.05,30.84-21.39Z"/><path class="cls-5" d="M4.58,62.75h-.01c-.06-.01-.11-.02-.16-.03"/><path class="cls-5" d="M5.79,63.01c-.54-.06-1-.13-1.38-.22"/><path class="cls-4" d="M149.19,74.66l-1.04,11.41c-4.08,.34-18.75,17.14-30.84,21.39-11.15,3.93-21.86-1.74-45.75-18.55C34.97,63.16,13.05,63.84,5.79,63.01c-.32-.07-.64-.14-.94-.2,13.52,2.16,42.2-1.99,64.7,10.96,22.55,12.97,40.8,21.23,56.2,15.96,6.35-2.18,20.52-15.52,23.44-15.07Z"/><path class="cls-5" d="M149.19,74.66c-2.92-.45-17.09,12.89-23.44,15.07-15.4,5.27-33.65-2.99-56.2-15.96-22.5-12.95-51.18-8.8-64.7-10.96-.02-.01-.04-.01-.06-.02,3.3,.19,33.28-.56,57.21,3.65,20.01,3.52,42.8,10.4,52,11.19,7.49,.64,17.25,.27,25.37-7.88,5.83-5.84,9.82,4.91,9.82,4.91Z"/><path class="cls-4" d="M149.19,74.66s-3.99-10.75-9.82-4.91c-8.12,8.15-17.88,8.52-25.37,7.88-9.2-.79-31.99-7.67-52-11.19-23.93-4.21-53.91-3.46-57.21-3.65,3.32-.17,33.29,.5,57.21-3.31,20.01-3.18,42.8-9.41,52-10.12,7.49-.58,17.25-.25,25.37,7.13,5.83,5.29,5.09,2.54,8.39-.46l1.43,18.63Z"/><path class="cls-5" d="M148.97,51.45l-1.21,4.58c-3.3,3-2.56,5.75-8.39,.46-8.12-7.38-17.88-7.71-25.37-7.13-9.2,.71-31.99,6.94-52,10.12-23.92,3.81-53.89,3.14-57.21,3.31h-.05s-.1-.03-.14-.03c13.51-2.07,42.22,1.9,64.73-10.46,22.55-12.37,40.8-20.24,56.2-15.22,6.35,2.08,20.53,14.8,23.44,14.37Z"/><path class="cls-4" d="M148.97,51.45c-2.91,.43-17.09-12.29-23.44-14.37-15.4-5.02-33.65,2.85-56.2,15.22-22.51,12.36-51.22,8.39-64.73,10.46t-.02-.01c.3-.05,.59-.11,.9-.18h.01c7.18-.82,29.13-.07,65.86-24.71,23.89-16.03,34.59-21.43,45.74-17.69,12.09,4.06,26.77,20.08,30.84,20.4l1.04,10.88Z"/><path class="cls-5" d="M147.93,40.57c-4.07-.32-18.75-16.34-30.84-20.4-11.15-3.74-21.85,1.66-45.74,17.69C34.62,62.5,12.67,61.75,5.49,62.57,33.16,56.39,88.27,4.71,103.83,4.71s40.78,24.45,40.78,24.45l3.32,11.41Z"/></g></g><polygon class="cls-3" points="215.46 64.31 129.46 4.81 129.46 123.81 215.46 64.31"/><path class="cls-3" d="M143.57,1.11S415.31-4.42,422.78,63.73c7.47,68.15-278.99,63.73-278.99,63.73l-.23-126.35Z"/><path class="cls-5" d="M231.33,125.4s11.72-1.88,17.89-12.88c7.27-12.93,9.17-36.54,9.17-56.01,0-15.56-1.82-30.71-7.86-39.45-7.96-11.51-20.67-14.15-20.67-14.15l25.5,1.8s12.71,2.57,20.67,13.76c6.04,8.51,7.86,23.24,7.86,38.37,0,18.94-1.9,41.89-9.17,54.47-6.18,10.7-17.89,12.53-17.89,12.53l-25.5,1.57Z"/><path class="cls-1" d="M333.41,52.78c-4.04-1.77-7.9-2.84-11.48-3.41-.12-.56-.45-2.67,.39-5.02,1.04-2.87,3.76-6.05,7.58-6.06h0c3.74,6.61,3.73,14.6,3.5,14.49Z"/><path class="cls-5" d="M329.9,38.29c-3.82,.01-6.54,3.19-7.58,6.06-.84,2.35-.51,4.46-.39,5.02-13.9-2.26-23.67,2.82-23.67,2.82-.24-3.08-1.25-22.51,17.01-22.51,7.54,0,12.01,3.96,14.63,8.61Z"/><path class="cls-2" d="M321.96,49.81l-.03-.15"/></g></svg>